<?xml version="1.0" encoding="UTF-8"?>
<svg id="Layer_1" data-name="Layer 1" xmlns="http://www.w3.org/2000/svg" viewBox="0 0 3840 1806.66">
  <defs>
    <style>
      .cls-1 {
        fill="currentColor";
        stroke-width: 0px;
      }
    </style>
  </defs>
  <path class="cls-1" d="M280.07,1695.6c-99.88,0-164.76-69.54-164.76-169.42s64.41-171.29,164.76-171.29,165.23,65.8,165.23,171.29c0,99.88-65.35,169.42-165.23,169.42ZM280.54,1641c58.81,0,91.48-43.41,91.48-114.82s-32.2-116.69-91.95-116.69-91.48,43.88-91.48,116.69,33.14,114.82,91.95,114.82Z"/>
  <path class="cls-1" d="M472.85,1688.6c-2.8,0-5.13-2.33-5.13-5.13l1.86-110.15-.93-119.95c0-2.81,2.33-5.14,5.13-5.14h57.41c2.81,0,5.14,2.33,4.67,5.14l-.94,25.21c16.34-21,43.88-35.94,77.48-35.94,50.88,0,83.55,34.54,83.55,93.34v50.41l1.4,97.09c0,2.8-2.33,5.13-5.13,5.13h-60.68c-2.8,0-5.13-2.33-5.13-5.13l1.4-97.09v-49.47c0-26.14-15.87-42.94-36.88-42.94-25.2,0-52.27,23.34-52.27,74.68v17.73l.93,97.09c0,2.8-2.33,5.13-5.13,5.13h-61.61Z"/>
  <path class="cls-1" d="M952.2,1607.39c2.8,0,5.13,2.33,4.67,5.13-6.53,43.88-48.54,82.15-115.29,82.15-80.28,0-123.69-52.74-123.69-125.56,0-76.55,45.74-126.96,122.28-126.96s122.29,51.81,124.15,135.36c0,2.8-2.33,5.13-5.13,5.13h-170.83c2.8,45.28,20.54,65.35,54.14,65.35,23.34,0,40.14-10.27,46.68-35.48.47-3.26,3.27-5.13,6.07-5.13h56.94ZM840.64,1488.37c-28,0-44.81,16.8-50.4,49.95h98.48c-2.8-25.67-17.27-49.95-48.08-49.95Z"/>
  <path class="cls-1" d="M1170.17,1582.65l2.33,100.82c0,2.8-2.33,5.13-5.14,5.13h-63.01c-2.8,0-5.14-2.33-5.14-5.13l2.34-100.82v-84.94h-31.27c-2.8,0-5.13-2.34-5.13-5.14v-39.2c0-2.81,2.33-5.14,5.13-5.14h31.27v-15.87c0-54.61,38.27-75.14,78.41-75.14,14.01,0,30.81,2.33,42.47,3.73,2.81.47,5.14,3.27,5.14,6.07v38.74c0,2.34-2.33,4.2-5.14,3.74-7-1.4-15.4-2.33-26.14-2.33-15.4,0-26.14,7.47-26.14,31.74v9.33h52.27c2.81,0,5.14,2.33,5.14,5.14v39.2c0,2.8-2.33,5.14-5.14,5.14h-52.27v84.94Z"/>
  <path class="cls-1" d="M1356.4,1694.67c-78.41,0-123.69-49.01-123.69-125.56s45.27-126.96,123.69-126.96,122.75,49.01,122.75,125.56-44.33,126.96-122.75,126.96ZM1356.4,1647.99c34.54,0,50.88-23.8,50.88-78.88s-16.8-80.28-51.34-80.28c-35.48.47-51.81,26.61-51.81,80.75s17.27,78.41,52.28,78.41Z"/>
  <path class="cls-1" d="M1505.76,1688.6c-2.81,0-5.14-2.33-5.14-5.13l1.87-115.29-1.87-114.82c0-2.81,2.33-5.14,5.14-5.14h59.74c2.8,0,5.13,2.33,4.67,5.14l-1.4,35.47c18.67-28.47,50.88-42.47,85.89-42.47,3.26,0,6.53.47,9.8.94,2.8.47,5.14,3.26,5.14,6.07v41.54c0,2.81-2.34,4.67-5.14,4.67-2.33-.47-5.6-.47-7.94-.47-49.47,0-85.88,27.54-85.88,82.62l.47,101.75c0,2.8-2.33,5.13-5.13,5.13h-60.21Z"/>
  <path class="cls-1" d="M1911.83,1678.8c0,2.81-2.33,6.07-4.67,7.01-13.53,4.2-28.47,7.46-42.94,7.46-40.61,0-79.35-20.53-79.35-75.14l.47-120.42h-26.14c-2.81,0-5.14-2.34-5.14-5.14v-39.2c0-2.81,2.33-5.14,5.14-5.14h25.67l-.47-55.07c0-2.81,2.34-5.14,5.14-5.14h60.67c2.81,0,5.14,2.33,5.14,5.14l-.47,55.07h52.28c2.8,0,5.13,2.33,5.13,5.14v39.2c0,2.8-2.33,5.14-5.13,5.14h-52.74l.47,118.55c0,20.54,10.27,27.07,25.67,27.07,10.73,0,19.14-1.87,26.14-3.74,2.8-.47,5.13,1.4,5.13,3.74v35.47Z"/>
  <path class="cls-1" d="M2055.12,1493.97c-22.87,0-47.61,18.2-54.6,52.74l1.86,136.76c0,2.8-2.33,5.13-5.13,5.13h-59.74c-2.8,0-5.13-2.33-5.13-5.13l2.33-158.7-2.33-157.76c0-2.8,2.33-5.13,5.13-5.13h59.74c2.8,0,5.13,2.33,5.13,5.13l-1.4,108.29c16.33-21.93,41.07-32.67,72.81-32.67,54.14,0,87.28,32.2,85.88,102.68l-.47,51.34,1.87,86.82c0,2.8-2.33,5.13-5.14,5.13h-61.61c-2.8,0-5.13-2.33-5.13-5.13l1.87-85.89-.47-60.67c-.47-28.94-16.34-42.94-35.48-42.94Z"/>
  <path class="cls-1" d="M2415.92,1607.39c2.8,0,5.13,2.33,4.67,5.13-6.53,43.88-48.54,82.15-115.29,82.15-80.28,0-123.69-52.74-123.69-125.56,0-76.55,45.74-126.96,122.28-126.96s122.29,51.81,124.15,135.36c0,2.8-2.33,5.13-5.13,5.13h-170.83c2.8,45.28,20.54,65.35,54.14,65.35,23.34,0,40.14-10.27,46.68-35.48.47-3.26,3.27-5.13,6.07-5.13h56.94ZM2304.36,1488.37c-28,0-44.81,16.8-50.4,49.95h98.48c-2.8-25.67-17.27-49.95-48.08-49.95Z"/>
  <path class="cls-1" d="M2786.52,1688.6c-2.8,0-5.6-2.33-6.06-5.13l-51.81-223.57-46.68,223.57c-.47,2.8-3.26,5.13-6.06,5.13h-77.95c-2.8,0-5.6-2.33-6.53-5.13l-73.75-316.46c-.93-2.8,1.4-5.13,3.74-5.13h62.08c2.81,0,5.6,2.33,6.07,5.13l51.34,251.11,49.01-251.11c.47-2.8,3.27-5.13,6.07-5.13h72.35c2.8,0,5.6,2.33,6.07,5.13l51.81,256.24,50.88-256.24c.47-2.8,3.26-5.13,6.07-5.13h57.41c2.8,0,4.67,2.33,3.73,5.13l-75.61,316.46c-.93,2.8-3.74,5.13-6.53,5.13h-75.62Z"/>
  <path class="cls-1" d="M3053.98,1694.67c-78.41,0-123.69-49.01-123.69-125.56s45.27-126.96,123.69-126.96,122.75,49.01,122.75,125.56-44.33,126.96-122.75,126.96ZM3053.98,1647.99c34.54,0,50.88-23.8,50.88-78.88s-16.8-80.28-51.34-80.28c-35.48.47-51.81,26.61-51.81,80.75s17.27,78.41,52.28,78.41Z"/>
  <path class="cls-1" d="M3203.34,1688.6c-2.81,0-5.14-2.33-5.14-5.13l1.87-115.29-1.87-114.82c0-2.81,2.33-5.14,5.14-5.14h59.74c2.8,0,5.13,2.33,4.67,5.14l-1.4,35.47c18.67-28.47,50.88-42.47,85.89-42.47,3.26,0,6.53.47,9.8.94,2.8.47,5.14,3.26,5.14,6.07v41.54c0,2.81-2.34,4.67-5.14,4.67-2.33-.47-5.6-.47-7.94-.47-49.47,0-85.88,27.54-85.88,82.62l.47,101.75c0,2.8-2.33,5.13-5.13,5.13h-60.21Z"/>
  <path class="cls-1" d="M3390.97,1688.6c-2.8,0-5.14-2.33-5.14-5.13l2.34-158.23-2.34-158.22c0-2.8,2.34-5.13,5.14-5.13h59.74c2.8,0,5.13,2.33,5.13,5.13l-2.33,158.22,2.33,158.23c0,2.8-2.33,5.13-5.13,5.13h-59.74Z"/>
  <path class="cls-1" d="M3658.88,1688.6c-2.81,0-5.14-2.33-4.67-5.13l.93-22.87c-16.8,20.53-40.61,32.67-70.94,32.67-68.15,0-104.09-54.14-104.09-124.15s40.14-125.56,105.48-125.56c29.41,0,52.74,10.27,69.08,29.87l-.94-106.42c0-2.8,2.33-5.13,5.14-5.13h60.67c2.8,0,5.14,2.33,5.14,5.13l-1.4,158.22,1.4,158.23c0,2.8-2.34,5.13-5.14,5.13h-60.67ZM3603.8,1647.06c34.07,0,52.27-25.68,52.74-76.55.47-51.81-17.74-80.28-51.34-80.75-35.48-.94-53.68,26.14-53.68,76.07,0,54.15,18.67,81.69,52.28,81.22Z"/>
  <path class="cls-1" d="M2148.38,959.85v.08s3.08.07,3.08.07l3.09-.07v-.08c76.65-1.66,138.54-64.42,138.54-141.46s-61.41-139.29-137.65-141.42v-.11s-1.04-.03-1.04-.03c-.97-.03-1.96-.06-2.94-.06s-1.95.03-2.92.06l-1.05.03v.11c-76.24,2.13-137.64,64.67-137.64,141.42s61.88,139.8,138.54,141.46ZM2139.95,785.68v21.2h-42.83c.76-9.72,2.63-19.45,5.57-29.12,12.36,4.17,24.82,6.81,37.26,7.92ZM2200.58,778.92c2.74,9.29,4.51,18.64,5.24,27.96h-42.85v-20.93c12.59-.8,25.17-3.12,37.61-7.03ZM2103.53,858.5c-3.08-9.51-5.17-19.07-6.15-28.6h42.56v21.73c-12.2.82-24.36,3.12-36.42,6.87ZM2199.14,859.22c-11.98-3.9-24.07-6.37-36.17-7.39v-21.94h42.56c-1,9.78-3.17,19.57-6.39,29.32ZM2162.97,874.87c9.14.91,18.29,2.8,27.39,5.64-6.89,13.81-16.03,27.6-27.39,41.27v-46.91ZM2139.95,874.63v47.14c-11.55-13.89-20.8-27.91-27.73-41.93,9.23-2.73,18.53-4.47,27.73-5.21ZM2211.85,889.02c7.75,3.74,15.52,8.2,23.25,13.35-14.03,13.97-31.56,24.37-51.11,29.96,11.41-14.27,20.77-28.75,27.86-43.32ZM2220.52,867.7c4.25-12.53,6.95-25.17,8.04-37.8h40.91c-1.95,20.12-8.92,38.79-19.67,54.71-9.68-6.6-19.47-12.26-29.29-16.91ZM2228.83,806.88c-.8-12.13-3.08-24.25-6.77-36.27,9.84-4.57,19.5-10.08,28.92-16.52,10.06,15.51,16.64,33.46,18.51,52.79h-40.65ZM2162.97,762.97v-50.12c9.61,10.96,20.77,26.1,29.4,44.55-9.75,2.97-19.57,4.83-29.4,5.56ZM2139.95,762.64c-9.62-1.01-19.28-3.14-28.9-6.31,8.56-17.95,19.49-32.73,28.9-43.48v49.79ZM2074.11,806.88h-40.66c1.94-20.01,8.85-38.58,19.51-54.45,9.38,6.45,18.87,12,28.4,16.62-3.98,12.52-6.42,25.16-7.25,37.82ZM2074.35,829.89c1.07,12.32,3.65,24.63,7.7,36.83-10.07,4.63-19.95,10.26-29.56,16.84-10.37-15.7-17.13-33.97-19.03-53.66h40.9ZM2066.98,901.48c7.72-5.18,15.62-9.64,23.62-13.39,7.15,14.88,16.67,29.67,28.34,44.25-19.95-5.71-37.78-16.45-51.96-30.86ZM2236.64,736.05c-7.44,5-15.03,9.33-22.72,13-7.99-17.44-18.04-32.29-27.44-43.98,19.3,5.98,36.45,16.8,50.16,30.98ZM2116.53,705.05c-9.16,11.37-18.86,25.69-26.77,42.54-7.4-3.68-14.8-8.02-22.16-12.98,13.5-13.52,30.24-23.79,48.93-29.56Z"/>
  <path class="cls-1" d="M1824.19,710.81c-14.23-14.23-33.21-22.07-53.46-22.07s-39.23,7.84-53.46,22.07l-28.73,28.73-28.73-28.73c-14.23-14.23-33.21-22.07-53.46-22.07s-39.23,7.83-53.46,22.07c-29.47,29.48-29.47,77.44,0,106.92l37.88,37.88,97.78,97.77,97.78-97.77,37.87-37.88c14.24-14.23,22.07-33.22,22.07-53.46s-7.83-39.23-22.07-53.46ZM1805.89,799.44l-37.87,37.88-79.48,79.48-79.48-79.48-37.88-37.88c-9.35-9.34-14.49-21.83-14.49-35.16s5.15-25.82,14.49-35.17c9.35-9.34,21.83-14.49,35.16-14.49s25.82,5.15,35.16,14.49l37.88,37.88,49.36,49.35,18.3-18.29-40.21-40.21,28.73-28.73c9.34-9.34,21.83-14.49,35.16-14.49s25.82,5.15,35.17,14.49c9.34,9.34,14.49,21.83,14.49,35.16s-5.15,25.82-14.5,35.16Z"/>
  <path class="cls-1" d="M1444.14,111.06v951.73h951.73V111.06h-951.73ZM1470.01,136.94h437.05v437.05h-437.05V136.94ZM1470.01,1036.91v-437.05h437.05v437.05h-437.05ZM2369.99,1036.91h-437.05v-437.05h437.05v437.05ZM2369.99,136.94v437.05h-437.05V136.94h437.05Z"/>
  <g>
    <path class="cls-1" d="M1688.52,363.8c-42.75,0-77.52-34.78-77.52-77.52v-7.91c0-42.75,34.78-77.52,77.52-77.52s77.52,34.78,77.52,77.52v7.91c0,42.75-34.78,77.52-77.52,77.52ZM1688.52,226.84c-28.41,0-51.52,23.11-51.52,51.52v7.91c0,28.41,23.11,51.52,51.52,51.52s51.52-23.11,51.52-51.52v-7.91c0-28.41-23.11-51.52-51.52-51.52Z"/>
    <path class="cls-1" d="M1843.14,526.42h-309.24v-75.17c0-41.82,34.02-75.84,75.84-75.84h157.55c41.82,0,75.84,34.02,75.84,75.84v75.17ZM1559.9,500.42h257.24v-49.17c0-27.48-22.36-49.84-49.84-49.84h-157.55c-27.48,0-49.84,22.36-49.84,49.84v49.17Z"/>
  </g>
  <g>
    <path class="cls-1" d="M1996.84,326.91v-98.34h67.43l58.93-15.77c13.76-3.68,28.41-2.24,41.25,4.07l121.9,59.93c17.1,8.41,24.5,29.6,16.5,47.25-3.98,8.79-11.11,15.4-20.07,18.61-8.75,3.14-18.15,2.61-26.48-1.48l-59.44-29.22c-3.83,4.85-8.94,8.73-15.04,11.01l-60.11,22.46c-18.28,6.83-38.77,4.14-54.82-7.19l-16.06-11.34h-54ZM2022.03,253.76v47.96h36.81l22.59,15.95c9.24,6.52,21,8.08,31.47,4.17l60.11-22.46c5.08-1.9,7.79-8.15,5.89-13.64-.92-2.67-2.77-4.78-5.21-5.93-2.19-1.03-4.62-1.15-6.84-.32l-39.01,14.58-8.81-23.59,39.01-14.58c8.64-3.23,18.01-2.82,26.4,1.13,8.63,4.07,15.12,11.36,18.28,20.51,1.16,3.36,1.79,6.79,1.94,10.19l62.76,30.86c2.15,1.06,4.59,1.19,6.86.37,2.49-.89,4.49-2.77,5.63-5.3,2.4-5.3.26-11.82-4.68-14.25l-121.9-59.93c-7.36-3.62-15.75-4.45-23.62-2.35l-62.13,16.63h-45.56Z"/>
    <path class="cls-1" d="M2306.09,384.01v98.34h-67.43l-58.93,15.77c-13.76,3.68-28.41,2.24-41.25-4.07l-121.9-59.93c-17.1-8.41-24.5-29.6-16.5-47.25,3.98-8.79,11.11-15.4,20.07-18.61,8.75-3.14,18.15-2.61,26.48,1.48l59.44,29.22c3.83-4.85,8.94-8.73,15.04-11.01l60.11-22.46c18.28-6.83,38.77-4.14,54.82,7.19l16.06,11.34h54ZM2280.9,457.16v-47.96h-36.81l-22.59-15.95c-9.24-6.52-21-8.08-31.47-4.17l-60.11,22.46c-5.08,1.9-7.79,8.15-5.89,13.64.92,2.67,2.77,4.78,5.21,5.93,2.19,1.03,4.62,1.15,6.84.32l39.01-14.58,8.81,23.59-39.01,14.58c-8.64,3.23-18.01,2.82-26.4-1.13-8.63-4.07-15.12-11.36-18.28-20.51-1.16-3.36-1.79-6.79-1.94-10.19l-62.76-30.86c-2.15-1.06-4.59-1.19-6.86-.37-2.49.89-4.49,2.77-5.63,5.3-2.4,5.3-.26,11.82,4.68,14.25l121.9,59.93c7.36,3.62,15.75,4.45,23.62,2.35l62.13-16.63h45.56Z"/>
  </g>
</svg>